<?xml version="1.0" encoding="UTF-8"?>
<svg width="23px" height="26px" viewBox="0 0 23 26" version="1.1" xmlns="http://www.w3.org/2000/svg" xmlns:xlink="http://www.w3.org/1999/xlink">
    <!-- Generator: Sketch 61.2 (89653) - https://sketch.com -->
    <title>形状</title>
    <desc>Created with Sketch.</desc>
    <g id="页面-1" stroke="none" stroke-width="1" fill="none" fill-rule="evenodd">
        <g id="步骤流程-分解" transform="translate(-586.000000, -183.000000)" fill="#FFFFFF" fill-rule="nonzero">
            <g id="编组-2备份" transform="translate(391.000000, 166.000000)">
                <g id="编组-3备份" transform="translate(176.250000, 0.000000)">
                    <path d="M40.8153513,21.0693887 L32.6788954,28.6744757 L32.4942466,28.6744757 L29.7215378,26.0205266 L29.7215378,25.8435966 L38.5965886,17.3538599 C38.7812373,17.1769299 38.5965886,17 38.4119399,17 L21.7727088,17 C20.292541,17 19,18.2385096 19,19.6539491 L19,40.3460509 C19,41.7614904 20.2955192,43 21.7727088,43 L38.2272912,43 C39.707459,43 41,41.7614904 41,40.3460509 L41,21.2463186 C41,21.0693887 40.9463923,20.9330656 40.8153513,21.0693887 Z M28.7982943,27.0821062 C28.7982943,26.9051763 28.982943,26.9051763 29.1675917,26.9051763 L31.5710031,29.2052655 C31.7556518,29.3821954 31.5710031,29.5591254 31.3863544,29.5591254 L28.6106674,29.9129853 C28.4260187,29.9129853 28.4260187,29.9129853 28.4260187,29.7360553 L28.7982943,27.0821062 Z M29.9061865,38.9335118 L22.5113036,38.9335118 C21.9573575,38.9335118 21.5880601,38.5796519 21.5880601,38.0488621 C21.5880601,37.5180723 21.9573575,37.1642124 22.5113036,37.1642124 L29.9061865,37.1642124 C30.4601327,37.1642124 30.8294301,37.5180723 30.8294301,38.0488621 C30.8294301,38.402722 30.275484,38.9335118 29.9061865,38.9335118 L29.9061865,38.9335118 Z M36.3778259,34.6871932 L22.3266549,34.6871932 C21.7727088,34.6871932 21.4034114,34.3333333 21.4034114,33.8025435 C21.4034114,33.2717537 21.7727088,32.9178938 22.3266549,32.9178938 L36.3778259,32.9178938 C36.931772,32.9178938 37.3010694,33.2717537 37.3010694,33.8025435 C37.3010694,34.3333333 36.931772,34.6871932 36.3778259,34.6871932 Z" id="形状"></path>
                </g>
            </g>
        </g>
    </g>
</svg>