<?xml version="1.0" encoding="UTF-8"?>
<svg width="22px" height="26px" viewBox="0 0 22 26" version="1.1" xmlns="http://www.w3.org/2000/svg" xmlns:xlink="http://www.w3.org/1999/xlink">
    <!-- Generator: Sketch 61.2 (89653) - https://sketch.com -->
    <title>xieyi</title>
    <desc>Created with Sketch.</desc>
    <g id="页面-1" stroke="none" stroke-width="1" fill="none" fill-rule="evenodd">
        <g id="步骤流程-分解" transform="translate(-410.000000, -183.000000)" fill="#FFFFFF" fill-rule="nonzero">
            <g id="编组-2备份" transform="translate(391.000000, 166.000000)">
                <g id="编组-3">
                    <g id="xieyi" transform="translate(19.000000, 17.000000)">
                        <path d="M15.2320298,0.0234 C15.1227809,0.0234 3.3839851,0 3.3839851,0 C1.51582868,0 0,1.456 0,3.25 L0,22.75 C0,24.544 1.51582868,26 3.3839851,26 L18.6160149,26 C20.4841713,26 22,24.544 22,22.75 L22,8.125 L22,6.5 L15.2320298,0.0234 Z M16.0787089,19.5 L5.92402235,19.5 C5.45698324,19.5 5.07734327,19.136 5.07734327,18.6862 C5.07734327,18.2364 5.45698324,17.8724 5.92402235,17.8724 L16.0787089,17.8724 C16.545748,17.8724 16.925388,18.2364 16.925388,18.6862 C16.925388,19.136 16.545748,19.5 16.0787089,19.5 L16.0787089,19.5 Z M16.0787089,14.625 L5.92402235,14.625 C5.45698324,14.625 5.07734327,14.261 5.07734327,13.8112 C5.07734327,13.3614 5.45698324,13 5.92402235,13 L16.0787089,13 C16.545748,13 16.925388,13.364 16.925388,13.8112 C16.925388,14.261 16.545748,14.625 16.0787089,14.625 Z M16.925388,6.5 C15.9913097,6.5 15.2320298,5.772 15.2320298,4.875 L15.2320298,1.625 L20.3093731,6.5 L16.925388,6.5 L16.925388,6.5 Z" id="形状"></path>
                    </g>
                </g>
            </g>
        </g>
    </g>
</svg>