<?xml version="1.0" encoding="UTF-8"?>
<svg width="31px" height="26px" viewBox="0 0 31 26" version="1.1" xmlns="http://www.w3.org/2000/svg" xmlns:xlink="http://www.w3.org/1999/xlink">
    <!-- Generator: Sketch 61.2 (89653) - https://sketch.com -->
    <title>形状</title>
    <desc>Created with Sketch.</desc>
    <g id="页面-1" stroke="none" stroke-width="1" fill="none" fill-rule="evenodd">
        <g id="步骤流程-分解" transform="translate(-934.000000, -183.000000)" fill="#FFFFFF" fill-rule="nonzero">
            <g id="编组-2备份" transform="translate(391.000000, 166.000000)">
                <g id="编组-3备份-3" transform="translate(528.750000, 0.000000)">
                    <path d="M15,30.7582208 C15,27.5974949 17.1328242,24.8203228 19.9819525,23.9979902 C21.5592811,19.9235502 25.4660302,17 30.0360119,17 C34.6418064,17 38.4409928,19.9235756 40.0177735,23.9979902 C42.9571061,24.8385027 45,27.5792897 45,30.7582462 C45,34.6683822 41.8995102,37.8485066 37.9751785,37.8485066 C37.2404201,37.8485066 36.5771376,37.1726029 36.5771376,36.4237767 C36.5771376,35.5647544 37.2400963,34.9984375 37.9752034,34.9984375 C40.340611,34.9984375 42.2232442,33.1166982 42.2232442,30.7597188 C42.2232442,29.4989629 41.666603,28.3295631 40.7537025,27.580483 L40.5029138,27.3415554 C40.431139,27.2501484 40.3236012,27.1772768 40.1806492,27.0858698 C40.1085755,26.9941328 39.9462975,26.9941328 39.8583845,26.9212611 L39.7687282,26.9212611 C39.6969533,26.8298541 39.607297,26.8298541 39.5343766,26.7569825 L39.4447202,26.7569825 C39.3729205,26.7569825 39.283289,26.6653216 39.1936327,26.6653216 C39.1218579,26.6653216 39.0325004,26.6653216 39.0325004,26.5924499 L38.7981488,26.5924499 C38.7084925,26.5924499 38.6370164,26.5924499 38.5470613,26.501043 L37.8855471,26.501043 C37.8137722,26.2271268 37.7241159,26.0261076 37.7241159,25.7519121 C37.6526399,25.7519121 37.6526399,25.6608099 37.6526399,25.5876335 C37.5632824,25.4230502 37.5632824,25.2590763 37.4915075,25.0941882 C37.4915075,25.0027813 37.4015524,25.0027813 37.4015524,24.911679 C37.3300764,24.7474004 37.2404201,24.5831218 37.1510626,24.4185638 L37.1510626,24.2539805 C37.0789889,24.0897019 36.9167109,23.9254233 36.8287979,23.7605352 C35.4491864,21.4206185 32.9036195,19.8321686 30.035738,19.8321686 C27.0966794,19.8321686 24.5522082,21.4206185 23.1723477,23.7605352 L22.937996,24.2539805 C22.937996,24.3089262 22.9019342,24.3089262 22.8843517,24.3635927 L22.8483148,24.4185638 L22.5972522,24.9116536 L22.5972522,25.0944675 L22.3646439,25.5879382 L22.3646439,25.7516074 C22.2746887,26.0258283 22.1853312,26.2268221 22.1853312,26.5007129 L21.4514694,26.5007129 C21.3799934,26.5921199 21.290337,26.5921199 21.218861,26.5921199 L21.057131,26.5921199 C20.985655,26.6470656 20.9498921,26.6649915 20.9317367,26.6649915 C20.925436,26.6736392 20.9154931,26.678737 20.9049269,26.678737 C20.8943608,26.678737 20.8844179,26.6736392 20.8781172,26.6649915 C20.8066412,26.6649915 20.716686,26.7566778 20.6437656,26.7566778 L20.4826332,26.7566778 C20.392703,26.8298541 20.321202,26.8298541 20.2315457,26.9209564 L20.1422132,26.9209564 C20.0707372,26.9938281 19.980782,26.9938281 19.9078366,27.0855397 L19.8181803,27.0855397 C19.7467043,27.1769467 19.657297,27.2498184 19.5673917,27.3412253 C19.4062593,27.414097 19.3347833,27.5058086 19.245127,27.580153 C18.3313797,28.3292838 17.8655155,29.4986836 17.8655155,30.7594141 C17.8655155,33.1163935 19.7472771,34.9981582 22.0230782,34.9981582 C22.8655985,34.9981582 23.4928939,35.5656431 23.4928939,36.4234975 C23.4928939,37.1726029 22.8656235,37.8482273 22.0230284,37.8482273 C18.190171,37.8485066 15,34.6683822 15,30.7582208 Z M24.4086834,35.5073965 C24.4086834,35.0871276 24.5698157,34.7764963 24.730948,34.5026055 L28.9787149,29.7540645 C29.2476839,29.4801483 29.6232442,29.3337956 30.0363357,29.3337956 C30.4494272,29.3337956 30.771119,29.4801483 31.1115391,29.7540645 L35.269052,34.5031641 C35.5342464,34.7673739 35.6829832,35.1299527 35.6812619,35.5079805 C35.6812619,36.257086 35.0540013,36.9151146 34.21173,36.9151146 C33.7995351,36.9151146 33.4948282,36.6958648 33.2258841,36.421974 L31.4340777,34.4299877 L31.4340777,41.592866 C31.4340777,42.4515836 30.8068571,43 30.0360368,43 C29.2298024,43 28.6558525,42.4519137 28.6558526,41.5928406 L28.6558526,34.4309272 L26.8652167,36.4225834 C26.5965964,36.6964996 26.202258,36.915724 25.790337,36.915724 C25.0541093,36.915724 24.4086834,36.2577208 24.4086834,35.5088946 L24.4086834,35.5073965 Z" id="形状"></path>
                </g>
            </g>
        </g>
    </g>
</svg>