<?xml version="1.0" encoding="UTF-8"?>
<svg width="26px" height="25px" viewBox="0 0 26 25" version="1.1" xmlns="http://www.w3.org/2000/svg" xmlns:xlink="http://www.w3.org/1999/xlink">
    <!-- Generator: Sketch 61.2 (89653) - https://sketch.com -->
    <title>形状</title>
    <desc>Created with Sketch.</desc>
    <g id="页面-1" stroke="none" stroke-width="1" fill="none" fill-rule="evenodd">
        <g id="步骤流程-分解" transform="translate(-761.000000, -184.000000)" fill="#FFFFFF" fill-rule="nonzero">
            <g id="编组-2备份" transform="translate(391.000000, 166.000000)">
                <g id="编组-3备份-2" transform="translate(352.500000, 0.000000)">
                    <path d="M29.7620462,27.1428756 C29.7620462,28.5961762 28.583258,29.7749645 27.1299574,29.7749645 L20.6320889,29.7749645 C19.1787883,29.7620462 18,28.583258 18,27.1428756 L18,20.6320889 C18,19.1787883 19.1787883,18 20.6320889,18 L27.1299574,18 C28.583258,18 29.7620462,19.1787883 29.7620462,20.6320889 L29.7620462,27.1428756 Z M43,27.1428756 L43,20.6320889 C43,19.1787883 41.8212117,18 40.3679111,18 L33.8571244,18 C32.4038238,18 31.2250355,19.1787883 31.2250355,20.6320889 L31.2250355,27.1428756 C31.2250355,28.5961762 32.4038238,29.7749645 33.8571244,29.7749645 L40.3679111,29.7749645 C41.8212117,29.7749645 43,28.5961762 43,27.1428756 Z M41.4788787,20.6320889 L41.4788787,27.1428756 C41.4788787,27.759721 40.9847565,28.2538432 40.3679111,28.2538432 L33.8571244,28.2538432 C33.240279,28.2538432 32.7461568,27.759721 32.7461568,27.1428756 L32.7461568,20.6320889 C32.7461568,20.0152435 33.240279,19.5211213 33.8571244,19.5211213 L40.3679111,19.5211213 C40.9847565,19.5211213 41.4788787,20.0152435 41.4788787,20.6320889 Z M29.7620462,40.3679111 C29.7620462,41.8212117 28.583258,43 27.1299574,43 L20.6320889,43 C19.1787883,43 18,41.8212117 18,40.3679111 L18,33.8571244 C18,32.4038238 19.1787883,31.2250355 20.6320889,31.2250355 L27.1299574,31.2250355 C28.583258,31.2250355 29.7620462,32.4038238 29.7620462,33.8571244 L29.7620462,40.3679111 Z M43,40.3679111 C43,41.8212117 41.8212117,43 40.3679111,43 L33.8571244,43 C32.4038238,43 31.2250355,41.8212117 31.2250355,40.3679111 L31.2250355,33.8571244 C31.2250355,32.4038238 32.4038238,31.2250355 33.8571244,31.2250355 L40.3679111,31.2250355 C41.8212117,31.2250355 43,32.4038238 43,33.8571244 L43,40.3679111 Z" id="形状"></path>
                </g>
            </g>
        </g>
    </g>
</svg>