<?xml version="1.0" encoding="UTF-8"?>
<svg width="19px" height="19px" viewBox="0 0 19 19" version="1.1" xmlns="http://www.w3.org/2000/svg" xmlns:xlink="http://www.w3.org/1999/xlink">
    <!-- Generator: Sketch 55.1 (78136) - https://sketchapp.com -->
    <title>Group</title>
    <desc>Created with Sketch.</desc>
    <g id="大气" stroke="none" stroke-width="1" fill="none" fill-rule="evenodd">
        <g id="1-1大气环境管理目标考核-行动计划管理--计划管理" transform="translate(-192.000000, -79.000000)" fill-rule="nonzero">
            <g id="编组-4">
                <g id="面包屑" transform="translate(192.000000, 79.000000)">
                    <g id="Group">
                        <circle id="椭圆_1" fill="#1890FF" cx="9.5" cy="9.5" r="9"></circle>
                        <g id="定位" transform="translate(5.000000, 4.000000)" fill="#FFFFFF">
                            <path d="M4.50017026,12 C4.50017026,12 0,6.5571505 0,4.22396959 C0,1.89119513 2.01500104,0 4.50017026,0 C6.98512507,0 9,1.89096799 9,4.22396959 C9,6.55723418 4.50017026,12 4.50017026,12 L4.50017026,12 Z M4.45348135,2.42643881 C3.39576692,2.42643881 2.53796224,3.23145018 2.53796224,4.22487814 C2.53796224,5.21775618 3.39562819,6.02279146 4.45348135,6.02279146 C5.51177592,6.02279146 6.36920225,5.21778009 6.36920225,4.22487814 C6.36920225,3.23172514 5.51183898,2.42643881 4.45348135,2.42643881 L4.45348135,2.42643881 Z" id="Shape"></path>
                        </g>
                    </g>
                </g>
            </g>
        </g>
    </g>
</svg>