<?xml version="1.0" encoding="UTF-8"?>
<svg width="14px" height="14px" viewBox="0 0 14 14" version="1.1" xmlns="http://www.w3.org/2000/svg" xmlns:xlink="http://www.w3.org/1999/xlink">
    <!-- Generator: Sketch 59.1 (86144) - https://sketch.com -->
    <title>icon-新增icon</title>
    <desc>Created with Sketch.</desc>
    <g id="20201013" stroke="none" stroke-width="1" fill="none" fill-rule="evenodd">
        <g id="定-1920-新改内页1-2" transform="translate(-1876.000000, -317.000000)">
            <g id="icon-新增icon" transform="translate(1876.000000, 317.000000)">
                <rect id="矩形" x="0" y="0" width="14" height="14"></rect>
                <g id="新增" transform="translate(1.000000, 1.000000)" fill="#2A8BFD" fill-rule="nonzero">
                    <path d="M2.27848101,0 L11.2405063,0 C11.6202532,0 12,0.305732484 12,0.76433121 L12,9.78343949 C12,10.1656051 11.6962025,10.5477707 11.2405063,10.5477707 L11.0126582,10.5477707 L11.0126582,1.68152866 C11.0126582,1.29936306 10.7088608,0.917197452 10.2531646,0.917197452 L1.51898734,0.917197452 L1.51898734,0.687898089 C1.51898734,0.305732484 1.89873418,0 2.27848101,0 Z M0.759493671,1.4522293 L9.72151899,1.4522293 C10.1012658,1.4522293 10.4810127,1.75796178 10.4810127,2.21656051 L10.4810127,11.2356688 C10.4810127,11.6178344 10.1772152,12 9.72151899,12 L0.759493671,12 C0.379746835,12 0,11.6942675 0,11.2356688 L0,2.21656051 C0.0759493671,1.8343949 0.379746835,1.4522293 0.759493671,1.4522293 Z M4.71415305,6.21276467 L2.27848101,6.21276467 L2.27848101,7.32104492 L4.71415305,7.32104492 L4.71415305,9.70700637 L5.80627441,9.70700637 L5.80627441,7.32104492 L8.20253165,7.32104492 L8.20253165,6.21276467 L5.80627441,6.21276467 L5.80627441,3.74522293 L4.71415305,3.74522293 L4.71415305,6.21276467 Z" id="形状"></path>
                </g>
            </g>
        </g>
    </g>
</svg>