<?xml version="1.0" encoding="UTF-8"?>
<svg width="20px" height="20px" viewBox="0 0 20 20" version="1.1" xmlns="http://www.w3.org/2000/svg" xmlns:xlink="http://www.w3.org/1999/xlink">
    <!-- Generator: Sketch 55.1 (78136) - https://sketchapp.com -->
    <title>路径</title>
    <desc>Created with Sketch.</desc>
    <defs>
        <filter x="-9.0%" y="-1.6%" width="117.9%" height="103.4%" filterUnits="objectBoundingBox" id="filter-1">
            <feOffset dx="-2" dy="0" in="SourceAlpha" result="shadowOffsetOuter1"></feOffset>
            <feGaussianBlur stdDeviation="2" in="shadowOffsetOuter1" result="shadowBlurOuter1"></feGaussianBlur>
            <feColorMatrix values="0 0 0 0 0   0 0 0 0 0   0 0 0 0 0  0 0 0 0.15 0" type="matrix" in="shadowBlurOuter1" result="shadowMatrixOuter1"></feColorMatrix>
            <feMerge>
                <feMergeNode in="shadowMatrixOuter1"></feMergeNode>
                <feMergeNode in="SourceGraphic"></feMergeNode>
            </feMerge>
        </filter>
    </defs>
    <g id="20200923" stroke="none" stroke-width="1" fill="none" fill-rule="evenodd">
        <g id="1920-新改内页1-3" transform="translate(-1796.000000, -304.000000)" fill="#FAAD14" fill-rule="nonzero">
            <g id="列表" transform="translate(24.000000, 120.000000)">
                <g id="操作" filter="url(#filter-1)" transform="translate(1714.000000, 105.000000)">
                    <g id="1" transform="translate(0.000000, 72.000000)">
                        <g id="附件-(1)" transform="translate(63.000000, 10.000000)">
                            <path d="M10.5483128,8.72475692 C10.5982011,8.69745008 10.6460894,8.66448549 10.6911488,8.62586314 L8.5819209,10.735091 C8.63915498,10.6778569 8.68573957,10.6160588 8.72167465,10.551395 L7.52730697,11.7457627 C6.07721281,13.1958569 3.70433145,13.1958569 2.25423729,11.7457627 C0.804143126,10.2956685 0.804143126,7.92278719 2.25423729,6.47269303 L3.30885122,5.4180791 L3.61644695,5.11048337 L6.47269303,2.25423729 C7.92278719,0.804143126 10.2956685,0.804143126 11.7457627,2.25423729 C13.1958569,3.74827369 13.1958569,6.07721281 11.7457627,7.52730697 L10.5483128,8.72475692 Z M10.5483128,8.72475692 C10.2576408,8.88385888 9.89907117,8.85089429 9.63653484,8.62586314 C9.32893912,8.31826742 9.32893912,7.87884493 9.63653484,7.57124921 L10.6911488,6.51663527 C11.5699937,5.63779032 11.5699937,4.23163842 10.6911488,3.35279346 C9.81230382,2.47394851 8.40615192,2.47394851 7.52730697,3.35279346 L6.47269303,4.4074074 C6.16509731,4.67106088 5.72567482,4.67106088 5.4180791,4.4074074 C5.11048337,4.09981168 5.11048337,3.66038919 5.4180791,3.35279346 L3.61644695,5.15442561 L3.30885122,5.46202134 C3.61644695,5.15442561 4.09981168,5.15442561 4.36346516,5.46202134 C4.67106088,5.76961706 4.67106088,6.20903955 4.36346516,6.51663527 L3.30885122,7.57124921 C2.43000627,8.45009416 2.43000627,9.85624606 3.30885122,10.735091 C4.18769618,11.613936 5.59384808,11.613936 6.47269303,10.735091 L7.52730697,9.68047708 C7.83490269,9.4168236 8.27432518,9.4168236 8.5819209,9.68047708 C8.83228255,9.93083872 8.87886713,10.2685334 8.72167465,10.551395 L10.5483128,8.72475692 Z M4.93471437,8.14249844 L8.09855618,4.97865663 C8.27432516,4.80288765 8.53797864,4.71500315 8.75768989,4.80288763 C8.97740113,4.84682987 9.19711235,5.06654111 9.24105461,5.28625235 C9.28499685,5.5059636 9.24105461,5.76961708 9.06528563,5.94538606 L5.90144382,9.06528563 C5.63779034,9.32893912 5.19836787,9.32893912 4.93471437,9.06528563 C4.67106088,8.80163215 4.67106088,8.40615192 4.93471437,8.14249844 Z" id="形状结合"></path>
                        </g>
                    </g>
                </g>
            </g>
        </g>
    </g>
</svg>