<?xml version="1.0" encoding="UTF-8"?>
<svg width="15px" height="15px" viewBox="0 0 15 15" version="1.1" xmlns="http://www.w3.org/2000/svg" xmlns:xlink="http://www.w3.org/1999/xlink">
    <!-- Generator: Sketch 55.1 (78136) - https://sketchapp.com -->
    <title>计算器 </title>
    <desc>Created with Sketch.</desc>
    <g id="20200923" stroke="none" stroke-width="1" fill="none" fill-rule="evenodd">
        <g id="1920-新改内页1-1" transform="translate(-1729.000000, -247.000000)" fill="#2A8BFD" fill-rule="nonzero">
            <g id="功能按钮" transform="translate(325.000000, 238.000000)">
                <g id="按钮" transform="translate(1203.000000, 0.000000)">
                    <g id="icon-计算器" transform="translate(192.000000, 0.000000)">
                        <g id="计算器-" transform="translate(9.000000, 9.000000)">
                            <path d="M2.67907741,4.72261248 L7.02274867,4.72261248 L7.02274867,5.93758719 L2.67907741,5.93758719 L2.67907741,4.72261248 Z M8.06054413,4.73765329 L12.2214032,4.73765329 L12.2214032,5.91044835 L8.06054413,5.91044835 L8.06054413,4.73765329 Z M8.06054413,8.69698661 L12.2214032,8.69698661 L12.2214032,9.90551498 L8.06054413,9.90551498 L8.06054413,8.69698661 Z M8.06054413,10.4730952 L12.2214032,10.4730952 L12.2214032,11.6324942 L8.06054413,11.6324942 L8.06054413,10.4730952 Z" id="形状"></path>
                            <polygon id="路径" points="4.21515329 3.19289017 5.47728338 3.19289017 5.47728338 7.35408431 4.21515329 7.35408431"></polygon>
                            <polygon id="路径" points="3.13700328 9.12507539 3.88881258 8.36135496 6.78501306 11.212407 6.03318703 11.9761107"></polygon>
                            <polygon id="路径" points="3.1497018 11.2273504 6.01832741 8.35071702 6.77692153 9.1072003 3.90831267 11.9838504"></polygon>
                            <path d="M12.3214166,14.9994974 L2.6785834,14.9994974 C1.20166856,14.9994974 0,13.7978289 0,12.320914 L0,2.67841586 C0,1.20166856 1.20166856,0 2.6785834,0 L12.3214166,0 C13.7983314,0 15,1.20166856 15,2.67841586 L15,12.3212491 C15,13.7981639 13.7983314,14.9994974 12.3214166,14.9994974 Z M2.88884624,1.522195 C2.14942181,1.52273396 1.5501344,2.12201355 1.54959542,2.86142836 L1.54959542,12.1751839 C1.5500574,12.9146532 2.14936734,13.5140178 2.88884624,13.5145569 L12.0997097,13.5145569 C12.8391886,13.5140178 13.4384985,12.9146532 13.4389605,12.1751839 L13.4389605,2.86142836 C13.4384215,2.12201355 12.8391341,1.52273396 12.0997097,1.522195 L2.88884624,1.522195 Z" id="形状"></path>
                        </g>
                    </g>
                </g>
            </g>
        </g>
    </g>
</svg>