<?xml version="1.0" encoding="UTF-8"?>
<svg width="14px" height="14px" viewBox="0 0 14 14" version="1.1" xmlns="http://www.w3.org/2000/svg" xmlns:xlink="http://www.w3.org/1999/xlink">
    <!-- Generator: Sketch 55.1 (78136) - https://sketchapp.com -->
    <title>全屏</title>
    <desc>Created with Sketch.</desc>
    <g id="20200923" stroke="none" stroke-width="1" fill="none" fill-rule="evenodd">
        <g id="1920-新改内页1-1" transform="translate(-1769.000000, -247.000000)" fill="#2A8BFD" fill-rule="nonzero">
            <g id="功能按钮" transform="translate(325.000000, 238.000000)">
                <g id="按钮" transform="translate(1203.000000, 0.000000)">
                    <g id="icon-全屏" transform="translate(232.000000, 0.000000)">
                        <g id="全屏" transform="translate(9.000000, 9.000000)">
                            <path d="M2.32278754,2.949208 L2.32278754,10.9712465 C2.32278754,11.2797865 2.5541925,11.5883264 2.93986742,11.5883264 L10.961906,11.5883264 C11.2704459,11.5883264 11.5789859,11.3569215 11.5789859,10.9712465 L11.5789859,2.949208 C11.5789859,2.64066806 11.3475809,2.3321281 10.961906,2.3321281 L2.93986742,2.3321281 C2.55419248,2.3321281 2.32278754,2.56353306 2.32278754,2.949208 Z" id="路径"></path>
                            <path d="M12.3503357,12.3596763 L9.8048812,12.3596763 L9.8048812,13.902376 L12.5817407,13.902376 C13.2759556,13.902376 13.8159005,13.3624311 13.8159005,12.6682163 L13.8159005,9.89135676 L12.2732008,9.89135676 L12.2732008,12.3596763 L12.3503357,12.3596763 Z M12.6588757,0.0180785124 L9.88201618,0.0180785124 L9.88201618,1.56077824 L12.4274707,1.56077824 L12.4274707,4.10623279 L13.9701705,4.10623279 L13.9701705,1.25223828 C13.8930355,0.558023408 13.3530906,0.0180785124 12.6588757,0.0180785124 Z M1.55143766,1.56077824 L4.09689221,1.56077824 L4.09689221,0.0180785124 L1.24289773,0.0180785124 C0.548682851,0.0180785124 0.00873795519,0.558023408 0.00873795519,1.25223828 L0.00873795519,4.02909779 L1.55143766,4.02909779 L1.55143766,1.56077824 Z M1.55143766,9.81422176 L0.00873795519,9.81422176 L0.00873795519,12.5910813 C0.00873795519,13.2852961 0.548682851,13.8252411 1.24289773,13.8252411 L4.01975723,13.8252411 L4.01975723,12.2825413 L1.55143766,12.2825413 L1.55143766,9.81422176 Z" id="形状"></path>
                        </g>
                    </g>
                </g>
            </g>
        </g>
    </g>
</svg>