<?xml version="1.0" encoding="UTF-8"?>
<svg width="16px" height="16px" viewBox="0 0 16 16" version="1.1" xmlns="http://www.w3.org/2000/svg" xmlns:xlink="http://www.w3.org/1999/xlink">
    <!-- Generator: Sketch 59.1 (86144) - https://sketch.com -->
    <title>icon-操作日志 </title>
    <desc>Created with Sketch.</desc>
    <defs>
        <filter x="-10.7%" y="-1.6%" width="121.4%" height="103.3%" filterUnits="objectBoundingBox" id="filter-1">
            <feOffset dx="-2" dy="0" in="SourceAlpha" result="shadowOffsetOuter1"></feOffset>
            <feGaussianBlur stdDeviation="2" in="shadowOffsetOuter1" result="shadowBlurOuter1"></feGaussianBlur>
            <feColorMatrix values="0 0 0 0 0   0 0 0 0 0   0 0 0 0 0  0 0 0 0.15 0" type="matrix" in="shadowBlurOuter1" result="shadowMatrixOuter1"></feColorMatrix>
            <feMerge>
                <feMergeNode in="shadowMatrixOuter1"></feMergeNode>
                <feMergeNode in="SourceGraphic"></feMergeNode>
            </feMerge>
        </filter>
    </defs>
    <g id="20200925" stroke="none" stroke-width="1" fill="none" fill-rule="evenodd">
        <g id="1440-新改内页1-2" transform="translate(-1361.000000, -305.000000)">
            <g id="列表" transform="translate(24.000000, 120.000000)">
                <g id="操作" filter="url(#filter-1)" transform="translate(1256.000000, 105.000000)">
                    <g id="1" transform="translate(0.000000, 72.000000)">
                        <g id="icon-操作日志-" transform="translate(81.000000, 8.000000)">
                            <rect id="矩形" x="0" y="0" width="16" height="16"></rect>
                            <g id="日志-(5)" transform="translate(1.875000, 1.875000)" fill="#00A65A" fill-rule="nonzero">
                                <path d="M10.8219551,-2.84217094e-14 L1.01902121,-2.84217094e-14 C0.456919789,0.00165861378 0.00165861378,0.456919789 0,1.01902121 L0,11.2128575 C0.00165861378,11.7749589 0.456919789,12.2302201 1.01902121,12.2318787 L10.8219551,12.2318787 C11.3840565,12.2302201 11.8393177,11.7749589 11.8409763,11.2128575 L11.8409763,1.01902121 C11.8393177,0.456919789 11.3840565,0.00165861378 10.8219551,-2.84217094e-14 Z M2.43878205,9.34515533 C2.15688671,9.34515533 1.9283654,9.11663399 1.9283654,8.83473865 C1.9283654,8.55284332 2.15688673,8.324322 2.43878207,8.324322 C2.7206774,8.324322 2.94919872,8.55284333 2.94919872,8.83473866 C2.94919872,8.97010958 2.89542283,9.09993606 2.79970114,9.19565775 C2.70397944,9.29137944 2.57415296,9.34515533 2.43878205,9.34515533 Z M2.43878205,6.62696006 C2.15688671,6.62696006 1.9283654,6.39843872 1.9283654,6.11654339 C1.9283654,5.83464805 2.15688673,5.60612674 2.43878207,5.60612674 C2.7206774,5.60612674 2.94919872,5.83464806 2.94919872,6.1165434 C2.94853263,6.39796684 2.72020628,6.62575277 2.43878205,6.62575198 L2.43878205,6.62696006 Z M2.43878205,3.90876479 C2.15688671,3.90876479 1.9283654,3.68024346 1.9283654,3.39834812 C1.9283654,3.11645278 2.15688673,2.88793147 2.43878207,2.88793147 C2.7206774,2.88793147 2.94919872,3.11645279 2.94919872,3.39834813 C2.94853263,3.67977157 2.72020628,3.90755751 2.43878205,3.90755671 L2.43878205,3.90876479 Z M9.40400641,9.34515533 L4.6459566,9.34515533 C4.46360228,9.34515533 4.29509994,9.24787047 4.20392278,9.089947 C4.11274561,8.93202353 4.11274561,8.73745378 4.20392278,8.57953031 C4.29509994,8.42160684 4.46360228,8.32432199 4.6459566,8.32432199 L9.40219428,8.32432199 C9.68408963,8.32432199 9.91261095,8.55284331 9.91261095,8.83473866 C9.91261095,9.116634 9.68408963,9.34515533 9.40219428,9.34515533 L9.40400641,9.34515533 Z M9.40400641,6.62696006 L4.6459566,6.62696006 C4.36406126,6.62696006 4.13553993,6.39843873 4.13553993,6.11654339 C4.13553993,5.83464805 4.36406126,5.60612672 4.6459566,5.60612672 L9.40219428,5.60612672 C9.68408963,5.60612672 9.91261095,5.83464805 9.91261095,6.11654339 C9.91261095,6.39843873 9.68408963,6.62696006 9.40219428,6.62696006 L9.40400641,6.62696006 Z M9.40400641,3.90876479 L4.6459566,3.90876479 C4.36406126,3.90876479 4.13553993,3.68024347 4.13553993,3.39834812 C4.13553993,3.11645278 4.36406126,2.88793145 4.6459566,2.88793145 L9.40219428,2.88793145 C9.68408963,2.88793145 9.91261095,3.11645278 9.91261095,3.39834812 C9.91261095,3.68024347 9.68408963,3.90876479 9.40219428,3.90876479 L9.40400641,3.90876479 Z" id="形状"></path>
                            </g>
                        </g>
                    </g>
                </g>
            </g>
        </g>
    </g>
</svg>