<?xml version="1.0" encoding="UTF-8"?>
<svg width="14px" height="14px" viewBox="0 0 14 14" version="1.1" xmlns="http://www.w3.org/2000/svg" xmlns:xlink="http://www.w3.org/1999/xlink">
    <!-- Generator: Sketch 55.1 (78136) - https://sketchapp.com -->
    <title>刷新 (2)</title>
    <desc>Created with Sketch.</desc>
    <g id="20200923" stroke="none" stroke-width="1" fill="none" fill-rule="evenodd">
        <g id="1920-新改内页1-1" transform="translate(-1688.000000, -247.000000)" fill="#2A8BFD" fill-rule="nonzero">
            <g id="功能按钮" transform="translate(325.000000, 238.000000)">
                <g id="按钮" transform="translate(1203.000000, 0.000000)">
                    <g id="icon-刷新" transform="translate(152.000000, 0.000000)">
                        <g id="刷新-(2)" transform="translate(8.000000, 9.000000)">
                            <path d="M11.9055805,2.0486215 C9.65329574,-0.177247505 6.18528061,-0.60921419 3.45578915,0.9961381 C0.726297698,2.60149039 -0.581529227,5.84237189 0.269279219,8.89252017 C1.12008766,11.9426685 3.91658998,14.0386882 7.08293494,13.9994558 C10.2492799,13.9602233 12.9929903,11.7955577 13.7679637,8.72526523 L11.9055805,8.72526523 C11.0235246,11.2452056 8.38859561,12.6997728 5.78620981,12.1033584 C3.18382402,11.5069441 1.44531759,9.05007367 1.7486949,6.39751187 C2.0520722,3.74495007 4.30041889,1.7440618 6.97026507,1.7506402 C8.3645204,1.73040587 9.70779079,2.27443038 10.6950314,3.25917058 L7.90145666,6.05274536 L13.954202,6.05274536 L13.954202,0 L11.9055805,2.0486215 Z" id="路径"></path>
                            <path d="M11.9055805,2.0486215 C9.65329574,-0.177247505 6.18528061,-0.60921419 3.45578915,0.9961381 C0.726297698,2.60149039 -0.581529227,5.84237189 0.269279219,8.89252017 C1.12008766,11.9426685 3.91658998,14.0386882 7.08293494,13.9994558 C10.2492799,13.9602233 12.9929903,11.7955577 13.7679637,8.72526523 L11.9055805,8.72526523 C11.0235246,11.2452056 8.38859561,12.6997728 5.78620981,12.1033584 C3.18382402,11.5069441 1.44531759,9.05007367 1.7486949,6.39751187 C2.0520722,3.74495007 4.30041889,1.7440618 6.97026507,1.7506402 C8.3645204,1.73040587 9.70779079,2.27443038 10.6950314,3.25917058 L7.90145666,6.05274536 L13.954202,6.05274536 L13.954202,0 L11.9055805,2.0486215 Z" id="路径"></path>
                        </g>
                    </g>
                </g>
            </g>
        </g>
    </g>
</svg>