<?xml version="1.0" encoding="UTF-8"?>
<svg width="16px" height="16px" viewBox="0 0 16 16" version="1.1" xmlns="http://www.w3.org/2000/svg" xmlns:xlink="http://www.w3.org/1999/xlink">
    <!-- Generator: Sketch 55.1 (78136) - https://sketchapp.com -->
    <title>setting</title>
    <desc>Created with Sketch.</desc>
    <g id="20200923" stroke="none" stroke-width="1" fill="none" fill-rule="evenodd">
        <g id="1920-新改内页1-1" transform="translate(-1848.000000, -246.000000)" fill-rule="nonzero">
            <g id="功能按钮" transform="translate(325.000000, 238.000000)">
                <g id="按钮" transform="translate(1203.000000, 0.000000)">
                    <g id="icon-列表设置" transform="translate(312.000000, 0.000000)">
                        <g id="setting" transform="translate(8.000000, 8.000000)">
                            <g id="分组">
                                <rect id="矩形" fill="#000000" opacity="0" x="0" y="0" width="16" height="16"></rect>
                                <g id="设置" fill="#2A8BFD">
                                    <path d="M15.817895,5.980855 C15.730535,5.524375 15.457735,5.230215 15.124295,5.239095 L15.056535,5.239095 C13.911815,5.239095 12.981095,4.308375 12.981095,3.163655 C12.981095,2.785655 13.161175,2.373735 13.161175,2.370215 C13.337735,1.972615 13.202215,1.484055 12.845575,1.234375 L12.825975,1.221895 L10.828935,0.112855 L10.809335,0.103975 C10.691655,0.052295 10.561495,0.027335 10.424215,0.027335 C10.138935,0.027335 9.860775,0.141415 9.678935,0.330455 C9.434695,0.581895 8.666135,1.236215 8.045655,1.236215 C7.419815,1.236215 6.645975,0.569335 6.401655,0.314375 C6.217975,0.120055 5.938055,0.005895 5.649175,0.005895 C5.513655,0.005895 5.387095,0.030855 5.271175,0.080775 L5.246215,0.087895 L3.179655,1.223655 L3.160055,1.237895 C2.801655,1.487495 2.664375,1.974295 2.840855,2.371895 C2.842615,2.375495 3.020935,2.790935 3.020935,3.167175 C3.020935,4.311895 2.090215,5.242615 0.945495,5.242615 L0.875975,5.242615 C0.542535,5.233735 0.269735,5.527895 0.182375,5.984375 C0.175255,6.021815 0.014775,6.877655 0.014775,7.549895 C0.014775,8.223895 0.175255,9.079735 0.182375,9.115415 C0.267975,9.566535 0.533655,9.858935 0.863495,9.858935 L0.945495,9.858935 C2.090215,9.858935 3.020935,10.789655 3.020935,11.934375 C3.020935,12.312375 2.840855,12.724295 2.840855,12.727815 C2.664295,13.125415 2.799815,13.613975 3.156455,13.863655 L3.176055,13.876135 L5.135655,14.972695 L5.155255,14.981575 C5.272935,15.033255 5.401335,15.060055 5.540375,15.060055 C5.827415,15.060055 6.109175,14.942375 6.291015,14.744455 C6.521015,14.494855 7.319815,13.781575 7.959975,13.781575 C8.605415,13.781575 9.391735,14.489415 9.639575,14.762215 C9.821415,14.963735 10.104935,15.083175 10.393815,15.083175 C10.529335,15.083175 10.654135,15.058215 10.771815,15.008295 L10.793175,14.999415 L12.820535,13.870775 L12.840135,13.856535 C13.196775,13.606935 13.334055,13.118375 13.157495,12.722535 C13.155735,12.718935 12.977415,12.303495 12.977415,11.927255 C12.977415,10.782535 13.908135,9.851815 15.052855,9.851815 L15.122375,9.851815 C15.455815,9.858935 15.728615,9.566535 15.815975,9.110055 C15.823095,9.074375 15.9835751,8.218535 15.9835751,7.544535 C15.983735,6.872375 15.825095,6.016535 15.817895,5.980855 Z M7.963575,10.301175 C6.439095,10.301175 5.198055,9.060135 5.198055,7.535655 C5.198055,6.011175 6.439095,4.770135 7.963575,4.770135 C9.488055,4.770135 10.729095,6.011175 10.729095,7.535655 C10.729095,9.060135 9.488055,10.301175 7.963575,10.301175 Z" id="形状"></path>
                                    <path d="M7.940615,5.910935 C7.059335,5.910935 6.340615,6.628135 6.340615,7.510935 C6.340615,8.392215 7.057815,9.110935 7.940615,9.110935 C8.821895,9.110935 9.540615,8.393735 9.540615,7.510935 C9.539095,6.628135 8.823415,5.910935 7.940615,5.910935 L7.940615,5.910935 Z" id="路径"></path>
                                </g>
                            </g>
                        </g>
                    </g>
                </g>
            </g>
        </g>
    </g>
</svg>