<?xml version="1.0" encoding="UTF-8"?>
<svg width="14px" height="14px" viewBox="0 0 14 14" version="1.1" xmlns="http://www.w3.org/2000/svg" xmlns:xlink="http://www.w3.org/1999/xlink">
    <!-- Generator: Sketch 55.1 (78136) - https://sketchapp.com -->
    <title>icon-收起条件</title>
    <desc>Created with Sketch.</desc>
    <g id="20200923" stroke="none" stroke-width="1" fill="none" fill-rule="evenodd">
        <g id="1920-新改内页1-1" transform="translate(-1777.000000, -137.000000)" fill-rule="nonzero">
            <g id="状态" transform="translate(24.000000, 121.000000)">
                <g id="按钮" transform="translate(1423.000000, 7.000000)">
                    <g id="搜索" transform="translate(317.000000, 0.000000)">
                        <g id="icon-收起条件" transform="translate(12.000000, 8.000000)">
                            <rect id="矩形" fill="#000000" opacity="0" x="0" y="0" width="16" height="16"></rect>
                            <g id="搜索" transform="translate(1.000000, 1.000000)" fill="#2A8BFD">
                                <path d="M6.06347492,0 C2.72079002,0 0,2.72079002 0,6.06347492 C0,9.40615982 2.72079002,12.1269498 6.06347492,12.1269498 C7.30726464,12.1269498 8.47331752,11.7382656 9.44502824,11.1163707 C10.1057915,10.688818 10.6499495,10.1057915 11.1163707,9.48389667 C11.777134,8.51218594 12.1658183,7.34613307 12.1658183,6.10234335 C12.0880814,2.72079002 9.40615981,0 6.06347492,0 Z M6.60763292,3.77023761 C5.05289576,3.77023761 3.77023761,5.05289576 3.77023761,6.60763292 C3.77023761,7.15179093 3.30381647,7.61821208 2.75965845,7.61821208 C2.21550044,7.61821208 1.74907931,7.19065936 1.74907931,6.60763292 C1.74907931,3.92571133 3.92571133,1.74907931 6.60763292,1.74907931 C7.15179093,1.74907931 7.61821208,2.21550045 7.61821208,2.75965845 C7.61821208,3.30381646 7.19065936,3.77023761 6.60763292,3.77023761 Z" id="形状"></path>
                                <path d="M12.6711078,13.9926344 C12.4378973,13.953766 12.2046867,13.8371607 12.0103446,13.681687 L7.69594894,9.40615981 C7.2295278,8.93973866 7.2295278,8.20123851 7.69594894,7.7736858 C8.16237008,7.30726466 8.90087023,7.30726466 9.32842296,7.7736858 L13.6428186,12.049213 C14.1092397,12.5156341 14.1092397,13.2541343 13.6428186,13.681687 C13.3707396,13.9148976 13.0209237,14.0315029 12.6711078,13.9926344 L12.6711078,13.9926344 Z" id="路径"></path>
                            </g>
                        </g>
                    </g>
                </g>
            </g>
        </g>
    </g>
</svg>