<?xml version="1.0" encoding="UTF-8"?>
<svg width="32px" height="32px" viewBox="0 0 32 32" version="1.1" xmlns="http://www.w3.org/2000/svg" xmlns:xlink="http://www.w3.org/1999/xlink">
    <!-- Generator: Sketch 55.1 (78136) - https://sketchapp.com -->
    <title>树展开</title>
    <desc>Created with Sketch.</desc>
    <g id="20200923" stroke="none" stroke-width="1" fill="none" fill-rule="evenodd">
        <g id="1920-新改内页1-3" transform="translate(-48.000000, -181.000000)">
            <g id="树展开" transform="translate(48.000000, 181.000000)">
                <g id="高级筛选">
                    <rect id="Rectangle-5-Copy" fill="#2A8BFD" x="0" y="0" width="32" height="32" rx="2"></rect>
                    <g id="outdent" transform="translate(8.000000, 8.000000)" fill-rule="nonzero">
                        <rect id="矩形" fill="#000000" opacity="0" x="0" y="0" width="16" height="16"></rect>
                        <path d="M7.125,7.22479248 L14.625,7.22479248 C14.69375,7.22479248 14.75,7.12479248 14.75,7.00257026 L14.75,5.4470147 C14.75,5.32479248 14.69375,5.22479248 14.625,5.22479248 L7.125,5.22479248 C7.05625,5.22479248 7,5.32479248 7,5.4470147 L7,7.00257026 C7,7.12479248 7.05625,7.22479248 7.125,7.22479248 Z M7,10.6374647 C7,10.759687 7.05625,10.859687 7.125,10.859687 L14.625,10.859687 C14.69375,10.859687 14.75,10.759687 14.75,10.6374647 L14.75,9.08190918 C14.75,8.95968696 14.69375,8.85968696 14.625,8.85968696 L7.125,8.85968696 C7.05625,8.85968696 7,8.95968696 7,9.08190918 L7,10.6374647 Z M14.6327661,1.625 L1.05973877,1.625 C0.98273877,1.625 0.91973877,1.725 0.91973877,1.84722222 L0.91973877,3.40277778 C0.91973877,3.525 0.98273877,3.625 1.05973877,3.625 L14.6327661,3.625 C14.7097661,3.625 14.7727661,3.525 14.7727661,3.40277778 L14.7727661,1.84722222 C14.7727661,1.725 14.7097661,1.625 14.6327661,1.625 Z M14.6327661,12.375 L1.05973877,12.375 C0.98273877,12.375 0.91973877,12.475 0.91973877,12.5972222 L0.91973877,14.1527778 C0.91973877,14.275 0.98273877,14.375 1.05973877,14.375 L14.6327661,14.375 C14.7097661,14.375 14.7727661,14.275 14.7727661,14.1527778 L14.7727661,12.5972222 C14.7727661,12.475 14.7097661,12.375 14.6327661,12.375 Z M1.07755278,8.15689104 L4.66910814,10.9559182 C4.80238403,11.0605122 5,10.9672871 5,10.7990272 L5,5.20097282 C5,5.03271286 4.80468189,4.93948775 4.66910814,5.04408178 L1.07755278,7.84310896 C0.974149074,7.92269137 0.974149074,8.07730863 1.07755278,8.15689104 Z" id="形状" fill="#FFFFFF" transform="translate(7.846252, 8.000000) rotate(-180.000000) translate(-7.846252, -8.000000) "></path>
                    </g>
                </g>
            </g>
        </g>
    </g>
</svg>