<?xml version="1.0" encoding="UTF-8"?>
<svg width="12px" height="12px" viewBox="0 0 12 12" version="1.1" xmlns="http://www.w3.org/2000/svg" xmlns:xlink="http://www.w3.org/1999/xlink">
    <!-- Generator: Sketch 59.1 (86144) - https://sketch.com -->
    <title>已收藏icon</title>
    <desc>Created with Sketch.</desc>
    <g id="20201013" stroke="none" stroke-width="1" fill="none" fill-rule="evenodd">
        <path d="M6.01601696,0 C5.80345752,0 5.64355043,0.107662826 5.53629568,0.321030951 L3.93917481,3.63508829 L0.425118863,4.33000286 C0.105304674,4.38285551 0.0526523288,4.59818116 0,4.75673912 C0,4.9172546 0,5.23828555 0.159907095,5.39880102 L2.71452046,7.85742832 L2.02223973,11.3320011 C1.9695874,11.5453693 2.07489206,11.7587374 2.23479917,11.9192529 C2.39470627,12.0269157 2.60726571,12.0269157 2.7671728,11.9192529 L5.96141454,10.2612455 L9.15565628,11.9192529 C9.20830861,11.9721055 9.31556338,11.9721055 9.42281814,11.9721055 C9.53007291,11.9721056 9.63537758,11.9721055 9.74263233,11.8644427 C9.90253943,11.7567799 9.95519177,11.4905591 9.95519176,11.277191 L9.31556338,7.69495534 L11.8721268,5.18347539 C11.9793816,5.02295991 12.0320339,4.80959177 11.9793816,4.54141349 C11.9267293,4.32804535 11.7122197,4.16752987 11.5542627,4.11467722 L8.04020679,3.47457282 L6.44308592,0.160515475 C6.3884835,0.107662826 6.2285764,0 6.01601696,0 Z" id="已收藏icon" fill="#F13939" fill-rule="nonzero"></path>
    </g>
</svg>